# File created by Blade
# Date/Time:  Wed Jan 21 16:33:30 2015
# Frame Rate: 120.000 fps
#------------------------------------------------------
:FULLY-SPECIFIED
:DEGREES
1353
root 25.186155 35.147671 -25.312017 0.327937 148.776805 -3.976986
Spine 10.913692 -2.958187 1.106805
Head 23.736664 11.450740 0.532275
LeftShoulder -6.326957 -13.355106 -1.321464
LeftArm 2.452926 41.671751 -81.739667
LeftForeArm 12.352321 0.000000 23.135130
LeftHand -0.765112 -0.000000 -0.423274
LeftHandThumb1 -26.253704 0.000000 33.147579
RightShoulder -6.617142 -22.671976 9.451566
RightArm 21.425164 -9.115339 65.188114
RightForeArm -25.455006 -0.000000 13.755027
RightHand -0.987315 -0.000000 2.558015
RightHandThumb1 -24.326973 -0.000000 -32.862282
LeftUpLeg 4.266619 21.869232 1.627767
LeftLeg 7.801453 -0.000000 -0.000000
LeftFoot -25.167604 38.011489 -19.287710
LeftToeBase 20.621451 -0.000000 -0.000000
RightUpLeg -22.173901 -30.458179 -0.756880
RightLeg 12.599875 -0.000000 -0.000000
RightFoot -20.307420 -41.105229 14.019963
RightToeBase 6.305886 -0.000000 -0.000000
1354
root 25.014810 35.142934 -25.307215 0.337016 149.650290 -3.897994
Spine 10.713147 -2.536040 1.055363
Head 23.723829 10.904141 0.732414
LeftShoulder -6.199749 -13.401954 -1.367559
LeftArm 2.582379 41.566348 -81.607996
LeftForeArm 12.160263 0.000000 22.598094
LeftHand -0.755483 0.000000 -0.503800
LeftHandThumb1 -26.253704 0.000000 33.147579
RightShoulder -6.686024 -22.872933 9.853760
RightArm 21.431144 -8.742543 64.937016
RightForeArm -25.550513 -0.000000 13.375484
RightHand -1.010114 0.000000 3.146560
RightHandThumb1 -24.326973 -0.000000 -32.862282
LeftUpLeg 4.769210 22.421065 1.557518
LeftLeg 6.372485 -0.000000 -0.000000
LeftFoot -25.000943 37.130514 -19.146826
LeftToeBase 20.556050 -0.000000 -0.000000
RightUpLeg -21.865585 -30.862796 -1.042703
RightLeg 12.162774 -0.000000 -0.000000
RightFoot -20.133374 -40.979188 13.805713
RightToeBase 6.441266 -0.000000 -0.000000
1355
root 24.839324 35.136807 -25.306954 0.323297 150.502900 -3.797794
Spine 10.565264 -2.045841 1.059259
Head 23.666171 10.343301 0.911600
LeftShoulder -6.013054 -13.399232 -1.445629
LeftArm 2.774538 41.434252 -81.418945
LeftForeArm 11.923844 -0.000000 22.126932
LeftHand -0.705403 -0.000000 -0.380197
LeftHandThumb1 -26.253704 0.000000 33.147579
RightShoulder -6.769110 -22.820876 10.228345
RightArm 21.239760 -8.474280 64.666557
RightForeArm -25.521407 0.000000 13.034591
RightHand -1.159629 -0.000000 3.694569
RightHandThumb1 -24.326973 -0.000000 -32.862282
LeftUpLeg 5.298622 22.973466 1.506333
LeftLeg 4.974520 -0.000000 -0.000000
LeftFoot -24.643565 36.323042 -18.601414
LeftToeBase 20.539281 -0.000000 -0.000000
RightUpLeg -21.491289 -31.268814 -1.334525
RightLeg 11.655574 -0.000000 -0.000000
RightFoot -20.037081 -40.875083 13.717315
RightToeBase 6.478242 -0.000000 -0.000000
1356
root 24.660566 35.129112 -25.304617 0.328295 151.279507 -3.710696
Spine 10.389901 -1.507050 1.052431
Head 23.622412 9.702270 1.085577
LeftShoulder -5.843230 -13.396726 -1.499283
LeftArm 2.999070 41.362474 -81.241841
LeftForeArm 11.650432 -0.000000 21.571870
LeftHand -0.578529 -0.000000 -0.497309
LeftHandThumb1 -26.253704 0.000000 33.147579
RightShoulder -6.830089 -22.932204 10.575804
RightArm 21.229263 -7.958326 64.468504
RightForeArm -25.605667 -0.000000 12.666374
RightHand -1.175105 -0.000000 4.256085
RightHandThumb1 -24.326973 -0.000000 -32.862282
LeftUpLeg 5.744105 23.440629 1.423790
LeftLeg 3.721312 -0.000000 -0.000000
LeftFoot -24.335962 35.589658 -18.106870
LeftToeBase 20.721685 -0.000000 -0.000000
RightUpLeg -21.165508 -31.511028 -1.649692
RightLeg 11.238530 -0.000000 -0.000000
RightFoot -20.131192 -40.652898 13.901161
RightToeBase 6.546855 -0.000000 -0.000000
1357
root 24.482739 35.120766 -25.310785 0.255230 152.064257 -3.651698
Spine 10.280418 -0.917977 1.023957
Head 23.578230 9.022709 1.328874
LeftShoulder -5.609435 -13.434496 -1.532020
LeftArm 3.177731 41.400205 -81.095026
LeftForeArm 11.346762 -0.000000 21.058385
LeftHand -0.628005 -0.000000 -0.344914
LeftHandThumb1 -26.253704 0.000000 33.147579
RightShoulder -6.920681 -22.929990 10.954618
RightArm 21.119880 -7.635665 64.169140
RightForeArm -25.505152 -0.000000 12.392172
RightHand -1.352252 -0.000000 4.745035
RightHandThumb1 -24.326973 -0.000000 -32.862282
LeftUpLeg 6.222621 23.785184 1.346929
LeftLeg 2.597689 -0.000000 -0.000000
LeftFoot -23.976049 34.857894 -17.525743
LeftToeBase 20.996516 -0.000000 -0.000000
RightUpLeg -20.787718 -31.846578 -2.022800
RightLeg 10.886733 -0.000000 -0.000000
RightFoot -20.256751 -40.464010 13.961457
RightToeBase 6.521541 -0.000000 -0.000000
1358
root 24.290405 35.113538 -25.269784 0.448561 153.326100 -3.481951
Spine 10.041265 -0.818104 1.099395
Head 23.433967 8.290043 1.535988
LeftShoulder -5.318117 -13.484657 -1.551437
LeftArm 3.422013 41.387378 -80.908974
LeftForeArm 11.017023 -0.000000 20.605727
LeftHand -0.609366 -0.000000 -0.265114
LeftHandThumb1 -26.253704 0.000000 33.147579
RightShoulder -6.840435 -22.736286 11.227041
RightArm 20.820159 -6.972307 64.062247
RightForeArm -25.667669 -0.000000 12.213922
RightHand -1.540340 -0.000000 5.308134
RightHandThumb1 -24.326973 -0.000000 -32.862282
LeftUpLeg 6.057872 23.198368 1.184918
LeftLeg 1.979840 -0.000000 -0.000000
LeftFoot -24.008082 34.347832 -17.122940
LeftToeBase 21.474850 -0.000000 -0.000000
RightUpLeg -20.600732 -32.448246 -2.217047
RightLeg 10.507638 -0.000000 -0.000000
RightFoot -20.470005 -40.425347 14.220755
RightToeBase 6.911750 -0.000000 -0.000000
1359
root 24.107449 35.105755 -25.256576 0.479121 154.428717 -3.342517
Spine 9.906473 -0.586540 1.158042
Head 23.307674 7.570369 1.736253
LeftShoulder -5.028361 -13.522923 -1.584053
LeftArm 3.638673 41.399754 -80.732947
LeftForeArm 10.521799 -0.000000 20.106966
LeftHand -0.526882 -0.000000 -0.227389
LeftHandThumb1 -26.253704 0.000000 33.147579
RightShoulder -6.853242 -22.725388 11.554846
RightArm 20.810571 -6.407310 63.791701
RightForeArm -25.631347 -0.000000 11.949812
RightHand -1.694876 -0.000000 5.861861
RightHandThumb1 -24.326973 -0.000000 -32.862282
LeftUpLeg 6.157046 22.671241 1.090630
LeftLeg 1.337740 -0.000000 -0.000000
LeftFoot -23.926480 33.759270 -16.695293
LeftToeBase 21.782668 -0.000000 -0.000000
RightUpLeg -20.221341 -32.969783 -2.542351
RightLeg 10.146277 -0.000000 -0.000000
RightFoot -20.691994 -40.261346 14.530269
RightToeBase 6.536056 -0.000000 -0.000000
1360
root 23.909838 35.095723 -25.232306 0.500847 155.276154 -3.378222
Spine 9.748337 -0.065276 1.019656
Head 23.116761 6.823918 2.042134
LeftShoulder -4.660758 -13.625369 -1.537442
LeftArm 3.762408 41.352231 -80.619670
LeftForeArm 10.123909 -0.000000 19.706615
LeftHand -0.613290 -0.000000 -0.263248
LeftHandThumb1 -26.253704 0.000000 33.147579
RightShoulder -6.876524 -22.643399 11.877009
RightArm 20.856626 -5.813257 63.596254
RightForeArm -25.619570 0.000000 11.509713
RightHand -1.758875 0.000000 6.192313
RightHandThumb1 -24.326973 -0.000000 -32.862282
LeftUpLeg 6.151103 22.283710 0.780200
LeftLeg 0.778169 -0.000000 -0.000000
LeftFoot -23.712074 33.301418 -16.100539
LeftToeBase 21.990802 -0.000000 -0.000000
RightUpLeg -20.077511 -33.200901 -2.965829
RightLeg 9.952266 -0.000000 -0.000000
RightFoot -21.230504 -40.054884 15.164662
RightToeBase 6.586527 -0.000000 -0.000000
1361
root 23.725534 35.085812 -25.211608 0.485465 155.986002 -3.405616
Spine 9.640696 0.580599 0.834852
Head 22.916756 6.054477 2.418317
LeftShoulder -4.291990 -13.697269 -1.450864
LeftArm 3.903787 41.403796 -80.410710
LeftForeArm 9.940536 -0.000000 19.413976
LeftHand -0.631595 0.000000 -0.434258
LeftHandThumb1 -26.253704 0.000000 33.147579
RightShoulder -6.963611 -22.614983 12.305722
RightArm 21.037059 -5.316760 63.263144
RightForeArm -25.465391 0.000000 11.146112
RightHand -1.908170 -0.000000 6.554788
RightHandThumb1 -24.326973 -0.000000 -32.862282
LeftUpLeg 6.228157 21.937175 0.538483
LeftLeg 0.262780 -0.000000 -0.000000
LeftFoot -23.592280 32.713725 -15.650907
LeftToeBase 22.304505 -0.000000 -0.000000
RightUpLeg -19.850240 -33.159210 -3.447241
RightLeg 9.764309 -0.000000 -0.000000
RightFoot -21.704430 -39.896016 15.687040
RightToeBase 6.489502 -0.000000 -0.000000
1362
root 23.531579 35.078128 -25.184325 0.492583 156.895619 -3.455864
Spine 9.524677 1.013211 0.660532
Head 22.673695 5.280890 2.750494
LeftShoulder -3.828851 -13.842319 -1.411812
LeftArm 3.948609 41.452337 -80.252262
LeftForeArm 9.619348 0.000000 19.082084
LeftHand -0.509488 -0.000000 -0.419468
LeftHandThumb1 -26.253704 0.000000 33.147579
RightShoulder -7.141307 -22.664572 12.737380
RightArm 21.464159 -4.685608 62.937926
RightForeArm -25.430970 -0.000000 10.696773
RightHand -2.158222 -0.000000 6.869240
RightHandThumb1 -24.326973 -0.000000 -32.862282
LeftUpLeg 6.172831 21.276069 0.211721
LeftLeg -0.165198 -0.000000 0.000000
LeftFoot -23.425454 32.362879 -15.070769
LeftToeBase 22.669103 -0.000000 -0.000000
RightUpLeg -19.616696 -33.301019 -3.972041
RightLeg 9.565225 -0.000000 -0.000000
RightFoot -22.155882 -39.755151 16.174737
RightToeBase 6.538828 -0.000000 -0.000000
1363
root 23.335313 35.070270 -25.153548 0.464242 157.783428 -3.530579
Spine 9.472424 1.400387 0.474950
Head 22.371724 4.557810 3.039631
LeftShoulder -3.496296 -13.859395 -1.386050
LeftArm 4.365110 41.836294 -79.811351
LeftForeArm 9.067224 -0.000000 18.738916
LeftHand -0.510782 -0.000000 -0.465038
LeftHandThumb1 -26.253704 0.000000 33.147579
RightShoulder -7.138351 -22.442461 13.007950
RightArm 21.654339 -4.030134 62.733024
RightForeArm -25.407311 -0.000000 10.251895
RightHand -2.336775 -0.000000 7.142503
RightHandThumb1 -24.326973 -0.000000 -32.862282
LeftUpLeg 6.110459 20.580823 -0.144012
LeftLeg -0.511632 -0.000000 0.000000
LeftFoot -23.394693 31.924784 -14.714640
LeftToeBase 22.931237 -0.000000 -0.000000
RightUpLeg -19.385374 -33.423193 -4.535221
RightLeg 9.435668 -0.000000 -0.000000
RightFoot -22.581190 -39.535988 16.485918
RightToeBase 6.748632 -0.000000 -0.000000
